<svg width="500" height="890" viewBox="0 0 500 890" fill="none" xmlns="http://www.w3.org/2000/svg">
    <defs>
        <linearGradient id="paint0_linear" x1="249.892" y1="246.733" x2="249.892" y2="-578" gradientUnits="userSpaceOnUse">
            <stop stop-color="#AE67F5"/>
            <stop offset="0.302083" stop-color="#C592F8"/>
        </linearGradient>
        <linearGradient id="paint1_linear" x1="249.892" y1="246.733" x2="249.892" y2="-578" gradientUnits="userSpaceOnUse">
            <stop stop-color="#AE67F5"/>
            <stop offset="0.302083" stop-color="#C592F8"/>
        </linearGradient>
        <linearGradient id="paint2_linear" x1="249.892" y1="246.733" x2="249.892" y2="-578" gradientUnits="userSpaceOnUse">
            <stop stop-color="#AE67F5"/>
            <stop offset="0.302083" stop-color="#C592F8"/>
        </linearGradient>
        <linearGradient id="paint3_linear" x1="249.892" y1="246.733" x2="249.892" y2="-578" gradientUnits="userSpaceOnUse">
            <stop stop-color="#AE67F5"/>
            <stop offset="0.302083" stop-color="#C592F8"/>
        </linearGradient>
        <linearGradient id="paint4_linear" x1="251.108" y1="64.2669" x2="251.108" y2="889" gradientUnits="userSpaceOnUse">
            <stop stop-color="#AE67F5"/>
            <stop offset="0.302083" stop-color="#C592F8"/>
        </linearGradient>
        <linearGradient id="paint5_linear" x1="251.108" y1="64.2669" x2="251.108" y2="889" gradientUnits="userSpaceOnUse">
            <stop stop-color="#AE67F5"/>
            <stop offset="0.302083" stop-color="#C592F8"/>
        </linearGradient>
        <linearGradient id="paint6_linear" x1="251.108" y1="64.2669" x2="251.108" y2="889" gradientUnits="userSpaceOnUse">
            <stop stop-color="#AE67F5"/>
            <stop offset="0.302083" stop-color="#C592F8"/>
        </linearGradient>
        <linearGradient id="paint7_linear" x1="251.108" y1="64.2669" x2="251.108" y2="889" gradientUnits="userSpaceOnUse">
            <stop stop-color="#AE67F5"/>
            <stop offset="0.302083" stop-color="#C592F8"/>
        </linearGradient>
        <linearGradient id="paint8_linear" x1="250.797" y1="216.371" x2="250.797" y2="892.179" gradientUnits="userSpaceOnUse">
            <stop stop-color="#7C1CDC"/>
            <stop offset="0.958333" stop-color="#EC6D84"/>
        </linearGradient>
        <linearGradient id="paint9_linear" x1="250.797" y1="216.371" x2="250.797" y2="892.179" gradientUnits="userSpaceOnUse">
            <stop stop-color="#7C1CDC"/>
            <stop offset="0.958333" stop-color="#EC6D84"/>
        </linearGradient>
        <linearGradient id="paint10_linear" x1="250.797" y1="216.371" x2="250.797" y2="892.179" gradientUnits="userSpaceOnUse">
            <stop stop-color="#7C1CDC"/>
            <stop offset="0.958333" stop-color="#EC6D84"/>
        </linearGradient>
        <linearGradient id="paint11_linear" x1="250.797" y1="216.371" x2="250.797" y2="892.179" gradientUnits="userSpaceOnUse">
            <stop stop-color="#7C1CDC"/>
            <stop offset="0.958333" stop-color="#EC6D84"/>
        </linearGradient>
        <linearGradient id="paint12_linear" x1="296" y1="83" x2="207" y2="179" gradientUnits="userSpaceOnUse">
            <stop stop-color="#7C1CDC"/>
            <stop offset="1" stop-color="#EC6D84"/>
        </linearGradient>
        <linearGradient id="paint13_linear" x1="291.5" y1="85" x2="210.5" y2="177" gradientUnits="userSpaceOnUse">
            <stop offset="0.0129446" stop-color="#7C1CDC"/>
            <stop offset="1" stop-color="#EC6D84"/>
        </linearGradient>
        <linearGradient id="paint14_linear" x1="296" y1="83" x2="216" y2="173" gradientUnits="userSpaceOnUse">
            <stop offset="0.0308912" stop-color="#7C1CDC"/>
            <stop offset="1" stop-color="#EC6D84"/>
        </linearGradient>
        <clipPath id="clip0">
            <rect width="500" height="889.294" fill="white"/>
        </clipPath>
    </defs>
    <g clip-path="url(#clip0)">
        <rect width="500" height="889.294" fill="#EEE3FA"/>
        <path d="M0 174.461L102.754 -56.5001L499.784 246.733V-578H0V174.461Z" fill="url(#paint0_linear)"/>
        <path d="M0 174.461L102.754 -110.35L499.784 246.733V-578H0V174.461Z" fill="url(#paint1_linear)"/>
        <path d="M0 174.461L102.754 -110.35L499.784 246.733V-578H0V174.461Z" fill="url(#paint2_linear)"/>
        <path d="M0 174.461L102.754 -110.35L499.784 246.733V-578H0V174.461Z" fill="url(#paint3_linear)"/>
        <path d="M1.216 136.539L103.97 367.5L501 64.2669V889H1.216V136.539Z" fill="url(#paint4_linear)"/>
        <path d="M1.216 136.539L103.97 421.35L501 64.2669V889H1.216V136.539Z" fill="url(#paint5_linear)"/>
        <path d="M1.216 136.539L103.97 421.35L501 64.2669V889H1.216V136.539Z" fill="url(#paint6_linear)"/>
        <path d="M1.216 136.539L103.97 421.35L501 64.2669V889H1.216V136.539Z" fill="url(#paint7_linear)"/>
        <path d="M0 244.942L104.5 367.5L501 213.193L499.784 889H205.467H0V244.942Z" fill="url(#paint8_linear)"/>
        <path d="M0 244.942L104.5 367.5L501 213.193L499.784 889H205.467H0V244.942Z" fill="url(#paint9_linear)"/>
        <path d="M0 244.942L104.5 367.5L501 213.193L499.784 889H205.467H0V244.942Z" fill="url(#paint10_linear)"/>
        <path d="M0 244.942L104.5 367.5L501 213.193L499.784 889H205.467H0V244.942Z" fill="url(#paint11_linear)"/>
        <path d="M183 88C183 74.7452 193.745 64 207 64H295C308.255 64 319 74.7452 319 88V179.4C319 192.655 308.255 203.4 295 203.4H207C193.745 203.4 183 192.655 183 179.4V88Z" fill="white" fill-opacity="0.62"/>
        <path d="M183 91.2C183 76.1779 195.178 64 210.2 64H291.8C306.822 64 319 76.1779 319 91.2V176.2C319 191.222 306.822 203.4 291.8 203.4H210.2C195.178 203.4 183 191.222 183 176.2V91.2Z" fill="white" fill-opacity="0.62"/>
        <path fill-rule="evenodd" clip-rule="evenodd" d="M250.962 77.9554L297.529 106.797L300.133 108.41V168.142L272.916 183.533H229.582L203 168.1V108.452L250.962 77.9554ZM251.036 183.269L289.133 161.725V114.536L251.038 90.9419L214 114.493V161.767L251.036 183.269Z" fill="url(#paint12_linear)"/>
        <path fill-rule="evenodd" clip-rule="evenodd" d="M223.479 175.568L246.146 83.7681L255.854 86.1652L233.188 177.965L223.479 175.568Z" fill="url(#paint13_linear)"/>
        <path fill-rule="evenodd" clip-rule="evenodd" d="M260.369 138.701L245.61 84.5823L255.257 81.9511L280.757 175.451L271.11 178.082L263.096 148.701H238.533V138.701H260.369Z" fill="url(#paint14_linear)"/>
    </g>
</svg>