<svg width="500" height="890" viewBox="0 0 500 890" fill="none" xmlns="http://www.w3.org/2000/svg">
    <defs>
        <linearGradient id="paint0_linear" x1="249.892" y1="246.733" x2="249.892" y2="-578" gradientUnits="userSpaceOnUse">
            <stop stop-color="#AE67F5"/>
            <stop offset="0.302083" stop-color="#C592F8"/>
        </linearGradient>
        <linearGradient id="paint1_linear" x1="249.892" y1="246.733" x2="249.892" y2="-578" gradientUnits="userSpaceOnUse">
            <stop stop-color="#AE67F5"/>
            <stop offset="0.302083" stop-color="#C592F8"/>
        </linearGradient>
        <linearGradient id="paint2_linear" x1="249.892" y1="246.733" x2="249.892" y2="-578" gradientUnits="userSpaceOnUse">
            <stop stop-color="#AE67F5"/>
            <stop offset="0.302083" stop-color="#C592F8"/>
        </linearGradient>
        <linearGradient id="paint3_linear" x1="249.892" y1="246.733" x2="249.892" y2="-578" gradientUnits="userSpaceOnUse">
            <stop stop-color="#AE67F5"/>
            <stop offset="0.302083" stop-color="#C592F8"/>
        </linearGradient>
        <linearGradient id="paint4_linear" x1="251.108" y1="64.2669" x2="251.108" y2="889" gradientUnits="userSpaceOnUse">
            <stop stop-color="#AE67F5"/>
            <stop offset="0.302083" stop-color="#C592F8"/>
        </linearGradient>
        <linearGradient id="paint5_linear" x1="251.108" y1="64.2669" x2="251.108" y2="889" gradientUnits="userSpaceOnUse">
            <stop stop-color="#AE67F5"/>
            <stop offset="0.302083" stop-color="#C592F8"/>
        </linearGradient>
        <linearGradient id="paint6_linear" x1="251.108" y1="64.2669" x2="251.108" y2="889" gradientUnits="userSpaceOnUse">
            <stop stop-color="#AE67F5"/>
            <stop offset="0.302083" stop-color="#C592F8"/>
        </linearGradient>
        <linearGradient id="paint7_linear" x1="251.108" y1="64.2669" x2="251.108" y2="889" gradientUnits="userSpaceOnUse">
            <stop stop-color="#AE67F5"/>
            <stop offset="0.302083" stop-color="#C592F8"/>
        </linearGradient>
        <linearGradient id="paint8_linear" x1="250.797" y1="216.371" x2="250.797" y2="892.179" gradientUnits="userSpaceOnUse">
            <stop stop-color="#7C1CDC"/>
            <stop offset="0.958333" stop-color="#EC6D84"/>
        </linearGradient>
        <linearGradient id="paint9_linear" x1="250.797" y1="216.371" x2="250.797" y2="892.179" gradientUnits="userSpaceOnUse">
            <stop stop-color="#7C1CDC"/>
            <stop offset="0.958333" stop-color="#EC6D84"/>
        </linearGradient>
        <linearGradient id="paint10_linear" x1="250.797" y1="216.371" x2="250.797" y2="892.179" gradientUnits="userSpaceOnUse">
            <stop stop-color="#7C1CDC"/>
            <stop offset="0.958333" stop-color="#EC6D84"/>
        </linearGradient>
        <linearGradient id="paint11_linear" x1="250.797" y1="216.371" x2="250.797" y2="892.179" gradientUnits="userSpaceOnUse">
            <stop stop-color="#7C1CDC"/>
            <stop offset="0.958333" stop-color="#EC6D84"/>
        </linearGradient>
        <clipPath id="clip0">
            <rect width="500" height="889.294" fill="white"/>
        </clipPath>
    </defs>
<g clip-path="url(#clip0)">
    <rect width="500" height="889.294" fill="#EEE3FA"/>
    <path d="M0 174.461L102.754 -56.5001L499.784 246.733V-578H0V174.461Z" fill="url(#paint0_linear)"/>
    <path d="M0 174.461L102.754 -110.35L499.784 246.733V-578H0V174.461Z" fill="url(#paint1_linear)"/>
    <path d="M0 174.461L102.754 -110.35L499.784 246.733V-578H0V174.461Z" fill="url(#paint2_linear)"/>
    <path d="M0 174.461L102.754 -110.35L499.784 246.733V-578H0V174.461Z" fill="url(#paint3_linear)"/>
    <path d="M1.216 136.539L103.97 367.5L501 64.2669V889H1.216V136.539Z" fill="url(#paint4_linear)"/>
    <path d="M1.216 136.539L103.97 421.35L501 64.2669V889H1.216V136.539Z" fill="url(#paint5_linear)"/>
    <path d="M1.216 136.539L103.97 421.35L501 64.2669V889H1.216V136.539Z" fill="url(#paint6_linear)"/>
    <path d="M1.216 136.539L103.97 421.35L501 64.2669V889H1.216V136.539Z" fill="url(#paint7_linear)"/>
    <path d="M0 244.942L104.5 367.5L501 213.193L499.784 889H205.467H0V244.942Z" fill="url(#paint8_linear)"/>
    <path d="M0 244.942L104.5 367.5L501 213.193L499.784 889H205.467H0V244.942Z" fill="url(#paint9_linear)"/>
    <path d="M0 244.942L104.5 367.5L501 213.193L499.784 889H205.467H0V244.942Z" fill="url(#paint10_linear)"/>
    <path d="M0 244.942L104.5 367.5L501 213.193L499.784 889H205.467H0V244.942Z" fill="url(#paint11_linear)"/>
</g>
</svg>
